{
    "accessors": {
        "accessor_21": {
            "bufferView": "bufferView_33",
            "byteOffset": 0,
            "byteStride": 0,
            "componentType": 5123,
            "count": 2280,
            "type": "SCALAR"
        },
        "accessor_23": {
            "bufferView": "bufferView_34",
            "byteOffset": 0,
            "byteStride": 12,
            "componentType": 5126,
            "count": 439,
            "max": [
                0.01,
                0.01,
                0.01
            ],
            "min": [
                -0.01,
                -0.01,
                -0.01
            ],
            "type": "VEC3"
        },
        "accessor_25": {
            "bufferView": "bufferView_34",
            "byteOffset": 5268,
            "byteStride": 12,
            "componentType": 5126,
            "count": 439,
            "max": [
                1,
                1,
                1
            ],
            "min": [
                -1,
                -1,
                -1
            ],
            "type": "VEC3"
        },
        "accessor_27": {
            "bufferView": "bufferView_34",
            "byteOffset": 10536,
            "byteStride": 8,
            "componentType": 5126,
            "count": 439,
            "max": [
                1,
                1
            ],
            "min": [
                0,
                0
            ],
            "type": "VEC2"
        }
    },
    "animations": {},
    "asset": {
        "generator": "collada2gltf@df4892809111a8c6dbff4fab6c386a24745d344e",
        "premultipliedAlpha": true,
        "profile": "WebGL 1.0.2",
        "version": 0.8
    },
    "bufferViews": {
        "bufferView_33": {
            "buffer": "Model",
            "byteLength": 4560,
            "byteOffset": 0,
            "target": 34963
        },
        "bufferView_34": {
            "buffer": "Model",
            "byteLength": 14048,
            "byteOffset": 4560,
            "target": 34962
        }
    },
    "buffers": {
        "Model": {
            "byteLength": 18608,
            "type": "arraybuffer",
            "uri": "data:application/octet-stream;base64,"
        }
    },
    "cameras": {
        "camera_0": {
            "perspective": {
                "aspect_ratio": 1.5,
                "xfov": 54.4321,
                "zfar": 100,
                "znear": 0.001
            },
            "type": "perspective"
        }
    },
    "materials": {
        "lambert1-fx": {
            "instanceTechnique": {
                "technique": "technique0",
                "values": {
                    "ambient": [
                        0,
                        0,
                        0,
                        1
                    ],
                    "diffuse": [
                        0.4,
                        0.4,
                        0.4,
                        1
                    ],
                    "emission": [
                        0,
                        0,
                        0,
                        1
                    ]
                }
            },
            "name": "lambert1"
        }
    },
    "meshes": {
        "pSphere1-lib": {
            "name": "pSphere1Mesh",
            "primitives": [
                {
                    "attributes": {
                        "NORMAL": "accessor_25",
                        "POSITION": "accessor_23",
                        "TEXCOORD_0": "accessor_27"
                    },
                    "indices": "accessor_21",
                    "material": "lambert1-fx",
                    "primitive": 4
                }
            ]
        }
    },
    "nodes": {
        "camera1": {
            "camera": "camera_0",
            "children": [],
            "name": "camera1",
            "rotation": [
                0,
                -1,
                0,
                1.5708
            ],
            "scale": [
                1,
                1,
                1
            ],
            "translation": [
                -0.00691045,
                0.0108845,
                0.058087
            ]
        },
        "camera1_aim": {
            "children": [],
            "matrix": [
                1,
                0,
                0,
                0,
                0,
                1,
                0,
                0,
                0,
                0,
                1,
                0,
                0.00291932,
                -0.00101291,
                0.00193189,
                1
            ],
            "name": "camera1_aim"
        },
        "camera1_group": {
            "children": [
                "camera1",
                "camera1_aim"
            ],
            "matrix": [
                1,
                0,
                0,
                0,
                0,
                1,
                0,
                0,
                0,
                0,
                1,
                0,
                0,
                0,
                0,
                1
            ],
            "name": "camera1_group"
        },
        "pSphere1": {
            "children": [],
            "matrix": [
                1,
                0,
                0,
                0,
                0,
                1,
                0,
                0,
                0,
                0,
                1,
                0,
                0,
                0,
                0,
                1
            ],
            "meshes": [
                "pSphere1-lib"
            ],
            "name": "pSphere1"
        }
    },
    "programs": {
        "program_0": {
            "attributes": [
                "a_normal",
                "a_position"
            ],
            "fragmentShader": "Model0FS",
            "vertexShader": "Model0VS"
        }
    },
    "scene": "defaultScene",
    "scenes": {
        "defaultScene": {
            "nodes": [
                "pSphere1",
                "camera1_group"
            ]
        }
    },
    "shaders": {
        "Model0FS": {
            "type": 35632,
            "uri": "data:text/plain;base64,"
        },
        "Model0VS": {
            "type": 35633,
            "uri": "data:text/plain;base64,"
        }
    },
    "skins": {},
    "techniques": {
        "technique0": {
            "parameters": {
                "ambient": {
                    "type": 35666
                },
                "diffuse": {
                    "type": 35666
                },
                "emission": {
                    "type": 35666
                },
                "modelViewMatrix": {
                    "semantic": "MODELVIEW",
                    "type": 35676
                },
                "normal": {
                    "semantic": "NORMAL",
                    "type": 35665
                },
                "normalMatrix": {
                    "semantic": "MODELVIEWINVERSETRANSPOSE",
                    "type": 35675
                },
                "position": {
                    "semantic": "POSITION",
                    "type": 35665
                },
                "projectionMatrix": {
                    "semantic": "PROJECTION",
                    "type": 35676
                }
            },
            "pass": "defaultPass",
            "passes": {
                "defaultPass": {
                    "details": {
                        "commonProfile": {
                            "extras": {
                                "doubleSided": false
                            },
                            "lightingModel": "Lambert",
                            "parameters": [
                                "ambient",
                                "diffuse",
                                "emission",
                                "modelViewMatrix",
                                "normalMatrix",
                                "projectionMatrix"
                            ]
                        },
                        "type": "COLLADA-1.4.1/commonProfile"
                    },
                    "instanceProgram": {
                        "attributes": {
                            "a_normal": "normal",
                            "a_position": "position"
                        },
                        "program": "program_0",
                        "uniforms": {
                            "u_ambient": "ambient",
                            "u_diffuse": "diffuse",
                            "u_emission": "emission",
                            "u_modelViewMatrix": "modelViewMatrix",
                            "u_normalMatrix": "normalMatrix",
                            "u_projectionMatrix": "projectionMatrix"
                        }
                    },
                    "states": {
                        "enable": [
                            2884,
                            2929
                        ]
                    }
                }
            }
        }
    }
}